<?xml version="1.0" encoding="UTF-8" standalone="no"?>
<svg
   xmlns:dc="http://purl.org/dc/elements/1.1/"
   xmlns:cc="http://creativecommons.org/ns#"
   xmlns:rdf="http://www.w3.org/1999/02/22-rdf-syntax-ns#"
   xmlns:svg="http://www.w3.org/2000/svg"
   xmlns="http://www.w3.org/2000/svg"
   xmlns:sodipodi="http://sodipodi.sourceforge.net/DTD/sodipodi-0.dtd"
   xmlns:inkscape="http://www.inkscape.org/namespaces/inkscape"
   inkscape:version="1.0 (4035a4fb49, 2020-05-01)"
   sodipodi:docname="msg-system.svg"
   id="svg12"
   height="128"
   width="128"
   p-id="3295"
   version="1.1"
   viewBox="0 0 1024 1024"
   class="icon"
   t="1604416707563">
  <metadata
     id="metadata16">
    <rdf:RDF>
      <cc:Work
         rdf:about="">
        <dc:format>image/svg+xml</dc:format>
        <dc:type
           rdf:resource="http://purl.org/dc/dcmitype/StillImage" />
      </cc:Work>
    </rdf:RDF>
  </metadata>
  <sodipodi:namedview
     inkscape:current-layer="svg12"
     inkscape:window-maximized="1"
     inkscape:window-y="-6"
     inkscape:window-x="-6"
     inkscape:cy="56.121018"
     inkscape:cx="-23.314312"
     inkscape:zoom="2.3450534"
     showgrid="false"
     id="namedview14"
     inkscape:window-height="1018"
     inkscape:window-width="1920"
     inkscape:pageshadow="2"
     inkscape:pageopacity="0"
     guidetolerance="10"
     gridtolerance="10"
     objecttolerance="10"
     borderopacity="1"
     bordercolor="#666666"
     pagecolor="#ffffff" />
  <defs
     id="defs4">
    <style
       id="style2"
       type="text/css" />
  </defs>
  <path
     style="fill:#3a9dff;fill-opacity:1"
     id="path6"
     p-id="3296"
     fill="#3882F5"
     d="M512 512m-512 0a512 512 0 1 0 1024 0 512 512 0 1 0-1024 0Z" />
  <path
     id="path8"
     p-id="3297"
     fill="#FFFFFF"
     d="M563.52 324.6464c-0.9472-24.576-21.824-43.776-46.7456-43.008-24.9984-0.8704-45.9904 18.368-46.9376 43.008v6.2976c-68.5056 25.024-114.3552 88.9728-115.4048 160.9728v57.344s0 86.2208-21.9136 86.2208a23.936 23.936 0 0 0-25.024 21.6064 20.864 20.864 0 0 0 6.2464 15.4496c4.1344 4.096 9.8048 6.3104 15.6672 6.144H695.424a21.7216 21.7216 0 0 0 19.8528-21.504c0-11.136-8.6016-20.4544-19.8528-21.504-21.9136 0-21.9136-86.2208-21.9136-86.2208v-61.5552c3.0848-70.4768-41.408-134.5152-109.1968-157.1328v-6.1184h-0.7808z" />
  <path
     style="fill:#bed7ff;fill-opacity:1"
     id="path10"
     p-id="3298"
     fill="#9BC0FA"
     d="M585.6256 703.36a65.3312 65.3312 0 0 1-20.6336 46.4384 67.264 67.264 0 0 1-48.0256 18.176 67.2768 67.2768 0 0 1-48.1536-18.112 65.3312 65.3312 0 0 1-20.6976-46.5152h137.5104z" />
</svg>
