<?xml version="1.0" standalone="no"?><!DOCTYPE svg PUBLIC "-//W3C//DTD SVG 1.1//EN" "http://www.w3.org/Graphics/SVG/1.1/DTD/svg11.dtd"><svg t="1605107863868" class="icon" viewBox="0 0 1024 1024" version="1.1" xmlns="http://www.w3.org/2000/svg" p-id="52370" xmlns:xlink="http://www.w3.org/1999/xlink" width="128" height="128"><defs><style type="text/css"></style></defs><path d="M204.8 0h614.4Q1024 0 1024 204.8v614.4q0 204.8-204.8 204.8H204.8Q0 1024 0 819.2V204.8Q0 0 204.8 0z" fill="#95EFC2" p-id="52371"></path><path d="M819.2 0H534.272A756.48 756.48 0 0 0 0 483.584V819.2A204.8 204.8 0 0 0 204.8 1024h614.4A204.8 204.8 0 0 0 1024 819.2V204.8A204.8 204.8 0 0 0 819.2 0z" fill="#88EDBF" p-id="52372"></path><path d="M819.2 0h-3.84a755.2 755.2 0 0 0-539.392 1024H819.2A204.8 204.8 0 0 0 1024 819.2V204.8A204.8 204.8 0 0 0 819.2 0z" fill="#79E8B8" p-id="52373"></path><path d="M497.152 721.152A752.384 752.384 0 0 0 560.384 1024H819.2A204.8 204.8 0 0 0 1024 819.2V204.8a204.8 204.8 0 0 0-89.088-168.96 755.2 755.2 0 0 0-437.76 685.312z" fill="#69E2B3" p-id="52374"></path><path d="M512 204.8a307.2 307.2 0 0 0-204.8 535.808V793.6a25.6 25.6 0 0 0 25.6 25.6H512a307.2 307.2 0 0 0 0-614.4z" fill="#D7FFE9" p-id="52375"></path><path d="M742.4 512a307.2 307.2 0 0 0-268.8-304.64 307.2 307.2 0 0 0-166.4 533.248V793.6a25.6 25.6 0 0 0 25.6 25.6h102.4A307.2 307.2 0 0 0 742.4 512z" fill="#FFFFFF" p-id="52376"></path><path d="M512 473.6q25.6 0 25.6 25.6v25.6q0 25.6-25.6 25.6t-25.6-25.6v-25.6q0-25.6 25.6-25.6zM409.6 473.6q25.6 0 25.6 25.6v25.6q0 25.6-25.6 25.6T384 524.8v-25.6q0-25.6 25.6-25.6zM614.4 473.6q25.6 0 25.6 25.6v25.6q0 25.6-25.6 25.6t-25.6-25.6v-25.6q0-25.6 25.6-25.6z" fill="#79E8B8" p-id="52377"></path></svg>