<?xml version="1.0" standalone="no"?><!DOCTYPE svg PUBLIC "-//W3C//DTD SVG 1.1//EN" "http://www.w3.org/Graphics/SVG/1.1/DTD/svg11.dtd"><svg t="1605154209445" class="icon" viewBox="0 0 1024 1024" version="1.1" xmlns="http://www.w3.org/2000/svg" p-id="17346" xmlns:xlink="http://www.w3.org/1999/xlink" width="128" height="128"><defs><style type="text/css"></style></defs><path d="M512 512m-512 0a512 512 0 1 0 1024 0 512 512 0 1 0-1024 0Z" fill="#F28B8B" p-id="17347"></path><path d="M779.377778 301.511111c-76.8-59.733333-187.733333-48.355556-256 19.911111l-11.377778 11.377778-11.377778-11.377778C426.666667 247.466667 307.2 238.933333 230.4 312.888889s-79.644444 196.266667-2.844444 270.222222l17.066666 17.066667 187.733334 187.733333c45.511111 45.511111 116.622222 45.511111 162.133333 0l201.955555-201.955555c79.644444-82.488889 73.955556-213.333333-17.066666-284.444445z" fill="#FCE0E0" p-id="17348" data-spm-anchor-id="a313x.7781069.0.i2"></path><path d="M676.977778 318.577778c-36.977778 0-36.977778 56.888889 0 56.888889s36.977778-56.888889 0-56.888889zM770.844444 392.533333c-25.6-25.6-65.422222 14.222222-39.822222 39.822223 19.911111 19.911111-17.066667 62.577778-31.288889 79.644444-22.755556 28.444444 28.444444 56.888889 48.355556 28.444444 34.133333-42.666667 68.266667-96.711111 22.755555-147.911111z" fill="#FFFFFF" p-id="17349"></path></svg>