<svg xmlns="http://www.w3.org/2000/svg" xmlns:xlink="http://www.w3.org/1999/xlink" viewBox="0 0 400 240"><defs><style>.cls-1,.cls-4,.cls-5{isolation:isolate;}.cls-2{opacity:0.36;mix-blend-mode:multiply;fill:url(#radial-gradient);}.cls-3{fill:url(#未命名的渐变_37);}.cls-4{opacity:0.84;fill:url(#未命名的渐变_36);}.cls-5{opacity:0.66;fill:url(#未命名的渐变_35);}.cls-6{fill:url(#未命名的渐变_93);}.cls-7{fill:url(#未命名的渐变_90);}.cls-8{fill:url(#未命名的渐变_91);}.cls-9{fill:url(#未命名的渐变_90-2);}.cls-10{fill:url(#未命名的渐变_90-3);}.cls-11{fill:url(#未命名的渐变_89);}.cls-12{fill:url(#未命名的渐变_89-2);}.cls-13,.cls-14,.cls-15,.cls-16,.cls-17,.cls-18,.cls-19{fill-rule:evenodd;}.cls-13{fill:url(#未命名的渐变_26);}.cls-14{fill:url(#未命名的渐变_22);}.cls-15{fill:url(#未命名的渐变_19);}.cls-16{fill:url(#未命名的渐变_30);}.cls-17{fill:#fbdbbe;}.cls-18{fill:url(#未命名的渐变_31);}.cls-19{fill:url(#未命名的渐变_31-2);}.cls-20{fill:none;stroke-miterlimit:10;stroke-width:0.5px;opacity:0.53;stroke:url(#未命名的渐变_93-2);}.cls-21{fill:url(#未命名的渐变_41);}.cls-22{fill:url(#未命名的渐变_41-2);}.cls-23{fill:url(#未命名的渐变_41-3);}</style><radialGradient id="radial-gradient" cx="186.19" cy="17834.54" r="114.55" gradientTransform="translate(8.71 -2479.79) scale(1 0.15)" gradientUnits="userSpaceOnUse"><stop offset="0" stop-color="#808083"/><stop offset="0.07" stop-color="#9a9a9c"/><stop offset="0.17" stop-color="#b9b9ba"/><stop offset="0.28" stop-color="#d2d2d4"/><stop offset="0.4" stop-color="#e6e6e7"/><stop offset="0.53" stop-color="#f4f4f5"/><stop offset="0.7" stop-color="#fdfdfd"/><stop offset="0.99" stop-color="#fff"/></radialGradient><linearGradient id="未命名的渐变_37" x1="-674.76" y1="-2991.46" x2="-674.76" y2="-2991.96" gradientTransform="matrix(390, 0, 0, -196, 263353, -586207.5)" gradientUnits="userSpaceOnUse"><stop offset="0" stop-color="#a8a8a8" stop-opacity="0.15"/><stop offset="1" stop-color="#a8a8a8" stop-opacity="0"/></linearGradient><radialGradient id="未命名的渐变_36" cx="-509.96" cy="-2945.9" r="1.3" gradientTransform="matrix(0, 21, 22.62, 0, 66882.46, 10879.55)" gradientUnits="userSpaceOnUse"><stop offset="0" stop-color="#fff"/><stop offset="1" stop-color="#c1c1c1"/></radialGradient><radialGradient id="未命名的渐变_35" cx="-464.23" cy="-2925.45" r="0.94" gradientTransform="matrix(0, 16, 17.23, 0, 50697.21, 7516.25)" gradientUnits="userSpaceOnUse"><stop offset="0" stop-color="#fff"/><stop offset="1" stop-color="#d7d7d7"/></radialGradient><linearGradient id="未命名的渐变_93" x1="123" y1="119.5" x2="194" y2="119.5" gradientUnits="userSpaceOnUse"><stop offset="0" stop-color="#f2f2f2"/><stop offset="0.13" stop-color="#ededed"/><stop offset="0.59" stop-color="#e0e0e0"/><stop offset="1" stop-color="#dbdbdb"/></linearGradient><linearGradient id="未命名的渐变_90" x1="225.5" y1="170" x2="225.5" y2="63" gradientUnits="userSpaceOnUse"><stop offset="0" stop-color="#fafafa"/><stop offset="1" stop-color="#dbdbdb"/></linearGradient><linearGradient id="未命名的渐变_91" x1="123" y1="68.5" x2="257" y2="68.5" gradientUnits="userSpaceOnUse"><stop offset="0" stop-color="#c9c9c9"/><stop offset="0.57" stop-color="#dadada"/><stop offset="1" stop-color="#ebebeb"/></linearGradient><linearGradient id="未命名的渐变_90-2" x1="123" y1="63" x2="218.86" xlink:href="#未命名的渐变_90"/><linearGradient id="未命名的渐变_90-3" x1="204.49" y1="88" x2="204.49" y2="54.05" xlink:href="#未命名的渐变_90"/><linearGradient id="未命名的渐变_89" x1="142.55" y1="66.08" x2="226.6" y2="66.08" gradientUnits="userSpaceOnUse"><stop offset="0" stop-color="#fafafa"/><stop offset="1" stop-color="#ececec"/></linearGradient><linearGradient id="未命名的渐变_89-2" x1="142.55" y1="82.49" x2="161.04" y2="82.49" xlink:href="#未命名的渐变_89"/><linearGradient id="未命名的渐变_26" x1="-694.55" y1="-3120.44" x2="-694.58" y2="-3121.15" gradientTransform="translate(-11666 -71655) rotate(180) scale(17 23)" gradientUnits="userSpaceOnUse"><stop offset="0" stop-color="#fff6ec"/><stop offset="1" stop-color="#fdead6"/></linearGradient><linearGradient id="未命名的渐变_22" x1="-693.58" y1="-3151.07" x2="-693.58" y2="-3151.89" gradientTransform="translate(-12342 -59761) rotate(180) scale(18 19)" gradientUnits="userSpaceOnUse"><stop offset="0" stop-color="#494b80"/><stop offset="1" stop-color="#272756"/></linearGradient><linearGradient id="未命名的渐变_19" x1="-683.18" y1="-3044.31" x2="-683.18" y2="-3045.11" gradientTransform="translate(-31283 -145999.5) rotate(180) scale(46 48)" gradientUnits="userSpaceOnUse"><stop offset="0" stop-color="#faa35e"/><stop offset="1" stop-color="#f66357"/></linearGradient><linearGradient id="未命名的渐变_30" x1="-682.78" y1="-3042.82" x2="-682.78" y2="-3043.64" gradientTransform="translate(-33299.76 -148958.01) rotate(180) scale(48.98 49)" gradientUnits="userSpaceOnUse"><stop offset="0" stop-color="#8caff7"/><stop offset="1" stop-color="#6a95f5"/></linearGradient><linearGradient id="未命名的渐变_31" x1="-692.52" y1="-3232.02" x2="-692.96" y2="-3231.86" gradientTransform="translate(-13045 -41835.98) rotate(180) scale(19 13)" gradientUnits="userSpaceOnUse"><stop offset="0" stop-color="#1f1f49"/><stop offset="1" stop-color="#424776"/></linearGradient><linearGradient id="未命名的渐变_31-2" x1="-692.45" y1="-3231.86" x2="-693.07" y2="-3231.73" gradientTransform="translate(-13038 -41828.98) rotate(180) scale(19 13)" xlink:href="#未命名的渐变_31"/><linearGradient id="未命名的渐变_93-2" x1="151.92" y1="65.75" x2="219.58" y2="65.75" xlink:href="#未命名的渐变_93"/><linearGradient id="未命名的渐变_41" x1="213.5" y1="39" x2="213.5" y2="21.82" gradientUnits="userSpaceOnUse"><stop offset="0" stop-color="#4b82fa" stop-opacity="0"/><stop offset="1" stop-color="#4b82fa" stop-opacity="0.6"/></linearGradient><linearGradient id="未命名的渐变_41-2" x1="227" y1="40" x2="227" y2="18" xlink:href="#未命名的渐变_41"/><linearGradient id="未命名的渐变_41-3" x1="235.5" y1="45" x2="235.5" y2="29" xlink:href="#未命名的渐变_41"/></defs><title>服务未开通</title><g class="cls-1"><g id="图层_1" data-name="图层 1"><ellipse class="cls-2" cx="194" cy="167" rx="114" ry="17"/><ellipse id="背景" class="cls-3" cx="198" cy="217.36" rx="195" ry="98"/><circle class="cls-4" cx="254.57" cy="174.43" r="14.43"/><circle id="椭圆形" class="cls-5" cx="285.5" cy="90.86" r="8"/><polygon class="cls-6" points="123 69 194 88 194 170 128 144 123 69"/><polygon class="cls-7" points="257 63 194 88 194 170 255 142 257 63"/><polygon class="cls-8" points="195 49 123 69 194 88 257 63 195 49"/><polygon class="cls-9" points="123 69 152 77 218.86 54.05 195 49 123 69"/><polygon class="cls-10" points="152 77 194 88 256.98 62.99 218.86 54.05 152 77"/><polygon class="cls-11" points="161 79.31 226.6 55.85 213.43 52.84 142.55 74.23 161 79.31"/><path class="cls-12" d="M142.55,74.23a3,3,0,0,1,0,.44l.08,1.18.12,1.66.13,1.91.13,1.92.12,1.68.08,1.21a.93.93,0,0,0,1.11.91.67.67,0,0,0,.23-.1,1.3,1.3,0,0,0,.19-.22,1.1,1.1,0,0,1,.8-.39,1.16,1.16,0,0,1,.83.33c.34.33.45.86.81,1.17a1.24,1.24,0,0,0,1.3.2c.42-.2.49-.75,1-.81a.92.92,0,0,1,.78.36,2.88,2.88,0,0,1,.43.79,4.15,4.15,0,0,0,.42.81,1.36,1.36,0,0,0,.73.52,1.19,1.19,0,0,0,1.4-.71.76.76,0,0,1,.69-.53.8.8,0,0,1,.66.29,1.68,1.68,0,0,1,.21.37c.13.28.27.55.41.82a3,3,0,0,0,1,1.24c.21.11.52.16.67,0a1.07,1.07,0,0,0,.1-.22,2.56,2.56,0,0,1,.55-1,.69.69,0,0,1,.18-.16.85.85,0,0,1,.32,0,1.15,1.15,0,0,1,.69.15.92.92,0,0,1,.22.26,4.74,4.74,0,0,1,.48.92,7.22,7.22,0,0,0,.43,1c.19.28.88.89,1,.31a5.23,5.23,0,0,0,0-1.25V79.31Z"/><g id="人物"><path id="脸" class="cls-13" d="M148.12,122.1l-2.73-8.51-6-.87q-1.65-.68-3,2.16c-1.39,2.83-1.27,9.67-1.29,10.4s0,1.06,1,1.45c.34.12,2.68-.23,3.28.23.43.32.58,1.2.48,2.64a7.19,7.19,0,0,0,3.81,1.78,5.46,5.46,0,0,0,3.15-1.26l-1.43-3.9Z"/><path id="头发" class="cls-14" d="M149.51,113.91a6.7,6.7,0,0,0-4.56-4.28,12.19,12.19,0,0,0-6,0c-1.58.41-2.24.22-3.28,1.91a4.12,4.12,0,0,0-.48,3.14,11.5,11.5,0,0,1,5-1.2,7,7,0,0,1,3.9,2.09c.83.82,1.36,2,1.54,4.42a1.89,1.89,0,0,1,1.12.45,1.32,1.32,0,0,1,.27,1.16,22.06,22.06,0,0,1-2.28,3.2q2.2.39,3.69-2.49A13.43,13.43,0,0,0,149.51,113.91Z"/><path id="上半身" class="cls-15" d="M146.75,127.29q.85,3.26-2,3.25T138,127.29a11.93,11.93,0,0,0-5.09,1.09,23.16,23.16,0,0,0-4.65,4.35l-3.86,4.15c2.08.72,3.37,1.21,3.86,1.46a4.22,4.22,0,0,1,1.5,2l24.52,24.14,3.41,2,4.28-2.81q-.28-11.9-.77-17.86c-.49-6-1.13-9.13-2.71-12.27s-5.2-4.42-7-5.17A17.74,17.74,0,0,0,146.75,127.29Z"/><path id="下半身" class="cls-16" d="M162,163.75c-4.44,1.21-6.81,1.57-7.08.65s-.6-5-1-12.25q1.28-2,0-3.45t-6.59-1.87q-2.36-3.14-4.31-3.49t-4.26,1.93q-1.87-5.36-7.67-4.87c-5.65.47-7.47,21.66-7.69,22.58A64.24,64.24,0,0,0,122,174.06c0,1.87,6.28-.41,6,1q-.6,3.23,5,5.31l5.8-7.06c2.13.49,4.53,1.08,7.19,1.75a17.07,17.07,0,0,0,10,0c2.85-.94,3.46-2.13,4.44-4.78A36.57,36.57,0,0,0,162,163.75Z"/><path class="cls-17" d="M148.93,146.6s-3.1,8.34-5.61,9.45c-2.76,1.22-5.08-1-6.37-1.3a11.11,11.11,0,0,1-3.32-1.95c-1.36-1.13-1.92-3-2.79-3s.41,2.5,0,2.5-5.07-2.78-5.07-4.38,5.43-6.86,5.34-7.26-2.68-3.85-4.52-3.5-3.75,4-4.61,5.33c-1.93,3-3.26,6.6-2.45,8.23,1.82,3.63,19.45,9.81,21.77,10.68s3.23,1.32,5.33.43,4.82-5.49,6.42-7.42a6.18,6.18,0,0,0,1.6-3.94c0-2.2-1-2.61-1.63-3S151,146.86,148.93,146.6Z"/><path id="鞋子" class="cls-18" d="M127.38,174.58c-.43-.42-1.79-.94-4.07-1.55a6.65,6.65,0,0,0-2.61,1.55c-1.39,1.24-2.71,3.16-4,4.39a13.46,13.46,0,0,1-3.65,2.25,5,5,0,0,0,6.16,2.1q3.86-1.2,9.36-6.07A6,6,0,0,0,127.38,174.58Z"/><path class="cls-19" d="M133.09,180.3c-.43-.42-1.78-.94-4.06-1.56a6.81,6.81,0,0,0-2.61,1.56c-1.39,1.24-2.72,3.16-4.06,4.39a13.64,13.64,0,0,1-3.64,2.24,5,5,0,0,0,6.16,2.11q3.84-1.2,9.35-6.07A6,6,0,0,0,133.09,180.3Z"/></g><line class="cls-20" x1="152" y1="77" x2="219.5" y2="54.5"/><polygon class="cls-21" points="213.91 39 218 39 216.36 21.82 209 24.27 213.91 39"/><polygon class="cls-22" points="221 39 224 18 233 20 225 40 221 39"/><polygon class="cls-23" points="228 42 231 45 243 32 238 29 228 42"/></g></g></svg>