<svg xmlns="http://www.w3.org/2000/svg" xmlns:xlink="http://www.w3.org/1999/xlink" viewBox="0 0 400 240"><defs><style>.cls-1,.cls-28,.cls-4{isolation:isolate;}.cls-2{opacity:0.36;mix-blend-mode:multiply;fill:url(#radial-gradient);}.cls-3{fill:url(#37);}.cls-4{opacity:0.66;fill:url(#35);}.cls-5{fill:url(#10);}.cls-6{fill:#4598e3;}.cls-13,.cls-6,.cls-7,.cls-8,.cls-9{fill-rule:evenodd;}.cls-7{fill:#0075bf;}.cls-8{fill:#fddcbd;}.cls-27,.cls-9{fill:#fff;}.cls-10{fill:url(#10-2);}.cls-11{fill:url(#10-3);}.cls-12{fill:url(#13);}.cls-13{fill:url(#11);}.cls-14{fill:url(#15);}.cls-15{fill:url(#13-2);}.cls-16{fill:url(#15-2);}.cls-17{fill:url(#12);}.cls-18{fill:url(#93);}.cls-19{fill:url(#90);}.cls-20{fill:url(#91);}.cls-21{fill:url(#90-2);}.cls-22{fill:url(#90-3);}.cls-23{fill:url(#89);}.cls-24{fill:url(#89-2);}.cls-25{fill:none;stroke-miterlimit:10;opacity:0.53;stroke:url(#73);}.cls-26{fill:url(#70);}.cls-27{font-size:5.26px;font-family:PingFangSC-Medium-GBpc-EUC-H, PingFang SC;}.cls-28{opacity:0.84;fill:url(#36);}.cls-29{fill:url(#41);}.cls-30{opacity:0.5;fill:url(#41-2);}.cls-31{opacity:0.3;fill:url(#41-3);}</style><radialGradient id="radial-gradient" cx="190.23" cy="17776.76" r="114.55" gradientTransform="translate(6.19 -2480.22) scale(1 0.15)" gradientUnits="userSpaceOnUse"><stop offset="0" stop-color="#808083"/><stop offset="0.07" stop-color="#9a9a9c"/><stop offset="0.17" stop-color="#b9b9ba"/><stop offset="0.28" stop-color="#d2d2d4"/><stop offset="0.4" stop-color="#e6e6e7"/><stop offset="0.53" stop-color="#f4f4f5"/><stop offset="0.7" stop-color="#fdfdfd"/><stop offset="0.99" stop-color="#fff"/></radialGradient><linearGradient id="37" x1="-1196.91" y1="-2991.92" x2="-1196.91" y2="-2992.42" gradientTransform="matrix(390, 0, 0, -196, 466994.5, -586306)" gradientUnits="userSpaceOnUse"><stop offset="0" stop-color="#a8a8a8" stop-opacity="0.15"/><stop offset="1" stop-color="#a8a8a8" stop-opacity="0"/></linearGradient><radialGradient id="35" cx="-989.38" cy="-2906.27" r="0.94" gradientTransform="matrix(0, 16, 17.23, 0, 50182.32, 15891.75)" gradientUnits="userSpaceOnUse"><stop offset="0" stop-color="#fff"/><stop offset="1" stop-color="#d7d7d7"/></radialGradient><linearGradient id="10" x1="-1135.7" y1="100.42" x2="-1122.27" y2="100.42" gradientTransform="translate(1420)" gradientUnits="userSpaceOnUse"><stop offset="0" stop-color="#fff7ed"/><stop offset="1" stop-color="#ffebd6"/></linearGradient><linearGradient id="10-2" x1="-1132.83" y1="88.06" x2="-1127.03" y2="88.06" xlink:href="#10"/><linearGradient id="10-3" x1="-900.95" y1="158.75" x2="-889.11" y2="158.75" gradientTransform="matrix(1, 0.1, -0.1, 1, 1196, 10.02)" xlink:href="#10"/><linearGradient id="13" x1="-1126.62" y1="148.8" x2="-1140.23" y2="148.8" gradientTransform="translate(1420)" gradientUnits="userSpaceOnUse"><stop offset="0" stop-color="#8caefb"/><stop offset="1" stop-color="#6894f9"/></linearGradient><linearGradient id="11" x1="-1069.11" y1="-3121.64" x2="-1069.11" y2="-3122.33" gradientTransform="matrix(-16.86, 6.29, -6.64, -17.8, -38472.26, -48771.94)" gradientUnits="userSpaceOnUse"><stop offset="0" stop-color="#494983"/><stop offset="1" stop-color="#272557"/></linearGradient><linearGradient id="15" x1="522.73" y1="178.63" x2="532.66" y2="178.63" gradientTransform="matrix(-1, 0, 0, 1, 807.09, 0)" gradientUnits="userSpaceOnUse"><stop offset="0" stop-color="#1f1e4a"/><stop offset="1" stop-color="#424677"/></linearGradient><linearGradient id="13-2" x1="-1119.57" y1="149.66" x2="-1133.08" y2="149.66" xlink:href="#13"/><linearGradient id="15-2" x1="506.66" y1="179.78" x2="516.59" y2="179.78" xlink:href="#15"/><linearGradient id="12" x1="-1142.63" y1="106.32" x2="-1113.97" y2="106.32" gradientTransform="translate(1420)" gradientUnits="userSpaceOnUse"><stop offset="0" stop-color="#fda457"/><stop offset="1" stop-color="#f96252"/></linearGradient><linearGradient id="93" x1="133.5" y1="121.27" x2="199.2" y2="121.27" gradientTransform="matrix(-1, 0, 0, 1, 387, 0)" gradientUnits="userSpaceOnUse"><stop offset="0" stop-color="#f2f2f2"/><stop offset="0.13" stop-color="#ededed"/><stop offset="0.59" stop-color="#e0e0e0"/><stop offset="1" stop-color="#dbdbdb"/></linearGradient><linearGradient id="90" x1="228.35" y1="168" x2="228.35" y2="68.99" gradientTransform="matrix(-1, 0, 0, 1, 387, 0)" gradientUnits="userSpaceOnUse"><stop offset="0" stop-color="#fafafa"/><stop offset="1" stop-color="#dbdbdb"/></linearGradient><linearGradient id="91" x1="133.5" y1="74.07" x2="257.5" y2="74.07" gradientTransform="matrix(-1, 0, 0, 1, 387, 0)" gradientUnits="userSpaceOnUse"><stop offset="0" stop-color="#c9c9c9"/><stop offset="0.57" stop-color="#dadada"/><stop offset="1" stop-color="#ebebeb"/></linearGradient><linearGradient id="90-2" x1="133.5" y1="68.99" x2="222.21" y2="68.99" xlink:href="#90"/><linearGradient id="90-3" x1="208.91" y1="92.12" x2="208.91" y2="60.7" xlink:href="#90"/><linearGradient id="89" x1="151.59" y1="71.83" x2="229.37" y2="71.83" gradientTransform="matrix(-1, 0, 0, 1, 387, 0)" gradientUnits="userSpaceOnUse"><stop offset="0" stop-color="#fafafa"/><stop offset="1" stop-color="#ececec"/></linearGradient><linearGradient id="89-2" x1="151.59" y1="87.02" x2="168.7" y2="87.02" xlink:href="#89"/><linearGradient id="73" x1="151.22" y1="71.53" x2="213.99" y2="71.53" gradientTransform="matrix(-1, 0, 0, 1, 378.5, 0)" gradientUnits="userSpaceOnUse"><stop offset="0" stop-color="#f2f2f2"/><stop offset="0.02" stop-color="#f1f1f1"/><stop offset="0.36" stop-color="#dbdbdc"/><stop offset="0.7" stop-color="#cececf"/><stop offset="1" stop-color="#c9cacb"/></linearGradient><linearGradient id="70" x1="197.8" y1="85.9" x2="198.61" y2="120.51" gradientTransform="matrix(-1, 0, 0, 1, 396, 0)" gradientUnits="userSpaceOnUse"><stop offset="0" stop-color="#4b82fa" stop-opacity="0.3"/><stop offset="1" stop-color="#4b82fa" stop-opacity="0.9"/></linearGradient><radialGradient id="36" cx="-1034.63" cy="-2930.68" r="1.3" gradientTransform="matrix(0, 21, 22.62, 0, 66370.27, 21872.55)" gradientUnits="userSpaceOnUse"><stop offset="0" stop-color="#fff"/><stop offset="1" stop-color="#c1c1c1"/></radialGradient><linearGradient id="41" x1="193.02" y1="30.71" x2="193.89" y2="67.82" gradientTransform="translate(0.12 -1.21) rotate(0.36)" gradientUnits="userSpaceOnUse"><stop offset="0" stop-color="#4b82fa" stop-opacity="0"/><stop offset="1" stop-color="#4b82fa" stop-opacity="0.6"/></linearGradient><linearGradient id="41-2" x1="176.63" y1="24.85" x2="177.28" y2="52.21" gradientTransform="matrix(1, 0, 0, 1, 0, 0)" xlink:href="#41"/><linearGradient id="41-3" x1="205.62" y1="26.87" x2="205.95" y2="40.78" gradientTransform="matrix(1, 0, 0, 1, 0, 0)" xlink:href="#41"/></defs><title>产品已下架</title><g class="cls-1"><g id="图层_1" data-name="图层 1"><ellipse class="cls-2" cx="195.5" cy="158" rx="114" ry="17"/><ellipse id="背景" class="cls-3" cx="199.5" cy="208.36" rx="195" ry="98"/><circle id="椭圆形" class="cls-4" cx="101" cy="63.86" r="8"/><path class="cls-5" d="M297.38,111s.11-11.42.18-12.25c.27-3.22.41-6.08-1.17-7.39a12.48,12.48,0,0,0-3.32-2.27c-.73-.29-4.22.45-6.33.82-1.71.3-1.89,2-1.71,3.6l-.73,14.25c1.2,3.07,11.34,5.17,13.08,3.24"/><path class="cls-6" d="M296.89,120.49l0,0h0v0h0l0,0,0,0h0l0,0,0,0,0,0,.05.09,0,.08V121l0,0,0,0,0,.07,0,.08,0,.07.08.15,0,.08,0,.07h0l0,.08,0,.08,0,0,0,0v0l0,0v0l0,0v0l0,0v.17l0,.24,0,.24,0,.25.05.24,0,.24,0,.24,0,.12,0,.12v.12l0,.12,0,.12v.13l0,.12v.24l0,.12v3.95l0,.39v.39l0,.39,0,.38v.39l0,.77,0,.77,0,.78,0,.77v.38l0,.39,0,.39v.42l0,.35v.39l0,.38v7.55l0,.13v.53l0,.13v.13l0,.13,0,.14v.13l0,.13,0,.13,0,.13,0,.13,0,.14,0,.13,0,.13,0,.13,0,.13,0,.13,0,.14,0,.13,0,.14,0,.14,0,.14,0,.14,0,.14,0,.14,0,.14,0,.14.08.28.08.28.09.27.08.28.09.28.09.28.17.55.09.28.09.28.07.25v0l.09.28.08.28.08.28,0,.14,0,.14,0,.14,0,.14,0,.14,0,.14,0,.14,0,.15,0,.14,0,.14,0,.14,0,.15,0,.14,0,.15,0,.14,0,.14,0,.15,0,.15,0,.14,0,.15,0,.14,0,.15v.15l0,.15,0,.14v3.64l0,.24v.24l0,.24,0,.24,0,.24,0,.23,0,.24,0,.24,0,.23,0,.24,0,.23,0,.24,0,.23,0,.23,0,.24,0,.23,0,.23,0,.24,0,.23-.05.23,0,.23,0,.23-.05.23-.05.23-.05.24-.05.23,0,.23-.06.23-.05.23-.06.23,0,.13,0,.1-.06.23-.05.23-.06.23-.07.23-.06.23-.06.23-.06.23-.07.23-.06.23-.07.23-.07.23-.06.23-.14.46-.14.46-.08.25-.06.22-.14.46,0,.07,0,.08v.07l0,.08,0,.08v.09l0,.09v6.05l-.05,0,0,0v-2.39l0-.47v-.24l0-.24v-2.66l0-.1v-.09l0-.09v-.09l0-.09,0-.08,0-.08,0-.08.14-.47.06-.21.07-.25.14-.46.13-.46.07-.23.07-.23.06-.23.06-.23.07-.23.06-.23.06-.23.06-.23.06-.23.06-.23.06-.23.05-.23,0-.1,0-.12.05-.23.06-.23.05-.23,0-.23.05-.23.05-.23.05-.23.05-.23,0-.22,0-.23.05-.23,0-.23,0-.23,0-.23,0-.23,0-.24,0-.23,0-.23,0-.23,0-.23,0-.24,0-.23,0-.23,0-.24,0-.23v-.23l0-.24,0-.24V156l0-.15v-.14l0-.14v-.15l0-.14,0-.14,0-.15,0-.14,0-.14,0-.14,0-.14,0-.14,0-.14,0-.15,0-.14,0-.14,0-.14,0-.13,0-.14,0-.14,0-.14,0-.14,0-.14,0-.14,0-.14,0-.14,0-.13-.08-.28-.09-.28-.08-.27v0l-.08-.25-.09-.28-.08-.27-.18-.56-.09-.27-.09-.28-.09-.28-.08-.28-.09-.28-.08-.28,0-.14,0-.15,0-.14,0-.14,0-.14,0-.14,0-.15,0-.14,0-.14,0-.13,0-.14,0-.13,0-.14,0-.14,0-.13,0-.14,0-.13,0-.14,0-.13,0-.14,0-.14,0-.13,0-.14V145l0-.14V137l0-.39v-.38l0-.39,0-.36v0l0-.39,0-.38,0-.39,0-.39.06-.77.05-.77.06-.77.05-.77,0-.39,0-.38,0-.39,0-.38,0-.39,0-.39v-.38l0-.39v-.38l0-.39v-2.59l0-.12v-.12l0-.12v-.12l0-.12,0-.24,0-.24,0-.24,0-.24,0-.24,0-.24V122l0,0v0l0,0v0l0,0,0-.08,0-.07h0l0-.07,0-.08-.07-.15,0-.08,0-.08,0-.07,0,0V121l0-.08,0-.09,0,0,0,0,0,0h0v-.17h0v0h.05Z"/><path class="cls-7" d="M286.56,122.64h0v0h0v0h0v0l0,0,0,0h0l0,.06.05.12.05.11,0,0,0,0v.08l0,.07h0v.2l0,.13v.14l0,.13v3.36h0v1.6l0,.13v.58l0,.06v1.18l0,0v0l0,0v0h0v0h0l0,0h0v0h0l0,0h0l0,0h1.11l.09,0,.08,0h.18l.09,0H289l.19,0,.37.06.19,0h.1l.09,0h.1l.09,0,.1,0h.09l.09,0,.1,0,.09,0,.09,0,.09,0h0l.05,0h0l0,0,.05,0,0,0h0l.05,0,0,0,0,0,0,0,0,0,0,0,0,0,0,0-.05,0,0,0,0,0,0,0,0,0h0l-.05,0,0,0H291l-.05,0h-.13l0,0-.09,0h-.09l-.09,0-.1,0h-.28l-.09,0h-.47l-.38,0-.19,0h-.46l-.09,0H287.3l0,0h0l0,0h0l0,0,0,0,0,0,0,0,0,0,0,0,0,0,0,0,0,0,0,0,0,0,0,0,0,0,0-.05,0,0h0v-.05l0,0v-1.39l0-.14v-.13l0-.14V126.5l0-.27v-2.85h0v-.06h0v0h0v-.08l0,0,0-.11,0-.12,0-.06h0v-.25h.05l0,0h0l0,0Z"/><path class="cls-7" d="M289.06,132.36l0,0v.8l0,.11v.1l0,.11,0,.1,0,.1,0,.11,0,.1V134h0l-.05.21,0,.2-.05.21-.05.2-.05.2,0,.1,0,.11,0,.1,0,.1,0,.1,0,.1,0,.26-.05.27,0,.26,0,.26-.05.26,0,.26-.05.26,0,.26-.1.52-.1.52-.11.52-.08.42,0,.09-.1.52-.11.52-.1.52-.1.51,0,.26-.05.26-.05.26,0,.26,0,.26-.05.26v.09l0,.17L287,144l0,.24,0,.24,0,.25,0,.24,0,.24,0,.24h0l0,.24,0,.24,0,.24,0,.24,0,.25,0,.24,0,.24v.09l0,.16,0,.24v.25l0,.24,0,.24v.49l0,.25v1.22l0,.49,0,.49v.49l0,1,0,.49v.08l0,.41,0,.49v1l0,.25v.24l0,.25v.24l0,.25,0,.24,0,.24,0,.25,0,.24,0,.25,0,.24,0,.24,0,.25,0,.24,0,.24,0,.25,0,.24,0,.24,0,.18,0,.17,0,.18,0,.18,0,.17,0,.18,0,.13v0l0,.18,0,.18-.05.18-.05.18,0,.17-.05.18,0,.18-.06.18-.05.18-.05.18-.06.17L285,163l-.06.18,0,.17-.06.18-.06.17-.05.18-.12.34-.11.34-.12.34-.11.33-.06.17-.05.16-.06.16-.05.17-.05.17-.05.16,0,.17-.05.18-.05.17-.05.17-.05.18,0,.17,0,.18-.05.18,0,.06,0,.12,0,.18-.05.18,0,.18,0,.18,0,.18,0,.19,0,.18,0,.19,0,.18,0,.19,0,.18,0,.19,0,.19,0,.18,0,.19,0,.19,0,.19,0,.19,0,.19,0,.18,0,.19,0,.19,0,.19,0,.19,0,.18,0,.19,0,.19h0l0,.19,0,.18,0,.19,0,.18,0,.19,0,.18,0,.19,0,.18,0,.18,0,.18v.72l0,.18v1.21l-.07.07-.07-.07v-2.49l0-.18v-.19l0-.18v-.19l0-.19,0-.19V173l0-.19h0l0-.19,0-.19,0-.19,0-.19,0-.19,0-.19,0-.19,0-.19,0-.19,0-.19,0-.19,0-.19,0-.19,0-.18,0-.19,0-.19,0-.19,0-.19,0-.18,0-.19,0-.19,0-.18,0-.19,0-.18.05-.18,0-.19,0-.18,0-.12,0-.06,0-.18.05-.18,0-.18.05-.17.05-.18.05-.17.05-.18,0-.17.05-.17.05-.17.05-.17.05-.16.06-.17,0-.16.11-.34.12-.33.11-.34.11-.35,0-.17.06-.18.06-.17.05-.18.05-.17.06-.18.05-.17,0-.18.05-.18.05-.18.05-.17.05-.18,0-.18.05-.17,0-.18,0-.18,0-.17v-.05l0-.13,0-.17,0-.18,0-.17,0-.17,0-.17,0-.17,0-.24,0-.24,0-.24,0-.24,0-.25,0-.24,0-.24,0-.24,0-.24,0-.24,0-.25,0-.24v-.24l0-.25v-.24l0-.24v-1.47l0-.49v-.49l0-.49,0-1v-.49l0-.49v-1.72l0-.25v-.49l0-.25v-.24l0-.25,0-.25v-.24l0-.25,0-.24,0-.25,0-.24,0-.25,0-.25,0-.24h0l0-.25,0-.24,0-.25,0-.24,0-.25,0-.24.05-.26,0-.17,0-.09,0-.26.05-.26.05-.26.06-.26.05-.26.05-.26.11-.52.12-.51.11-.52.11-.52,0-.09.09-.42.12-.52.11-.51.11-.52.06-.26.05-.26,0-.25.05-.26.06-.26.05-.26.05-.26,0-.26,0-.1,0-.11,0-.1,0-.11,0-.1,0-.1.05-.21,0-.2.05-.2.06-.2.05-.21h0l0-.09,0-.1,0-.1,0-.1,0-.1,0-.1,0-.1,0-.1,0-.11V133l0-.1v-.46h0l0,0,0,0Z"/><path class="cls-7" d="M286.59,131.44h1.11l.27,0h.27l.25,0h0l.13,0h.17l.1,0,.07,0,.06,0,0,0,0,0-.06,0h-4.21l-.07,0h-.07l-.11-.07.07-.1.07,0,.07,0,.07,0,.07,0,.08,0H285l.07,0h.07l.07,0h1.36Z"/><path class="cls-8" d="M263.7,94.54v0c0-.56.1-1.38.1-1.38l.17-.54c.11-.45.2-.32.22-.32.55,0,.37,1,.82,2.09a4.63,4.63,0,0,0,.36.65l.53.3c.11.07,1.17,4.84.47,4.07a5.64,5.64,0,0,0-3.8-1.64,11.28,11.28,0,0,0-2.23.3,15.72,15.72,0,0,1-2.41.59c0-.2.22-.33.37-.42a9.8,9.8,0,0,1,1.79-.93l.63-.23.32-.13-.35,0c-.22,0-.44.11-.66.13-.65.06-2.49.62-2.77.58-.07,0-.27,0-.25-.15s1.32-.75,1.68-.87c.74-.23,1.55-.52,1.76-.6,0,0,.2,0,.21-.08s-.18,0-.19,0c-.19,0-3.69.28-3.63.17s.49-.38.77-.48a9.66,9.66,0,0,1,2.27-.41l.78-.1s.27,0,.29-.06-.16,0-.19,0-.36,0-.52,0a13.11,13.11,0,0,0-1.88,0c-.24,0-.91.07-.92,0-.06-.33,2.48-.61,3-.61A21.63,21.63,0,0,1,263.7,94.54Zm.48-2.1"/><path class="cls-8" d="M285.43,91.29c-3.44,3-7.95,12.19-7.95,12.19s-2-1.69-4-3c-5.11-3.59-8.66-6.58-9.56-5.17-1.18,1.82,12.36,14.52,15.8,12.8,4.33-5.25,9.8-9.59,9.77-13.09C289.52,93.36,285.43,91.29,285.43,91.29Z"/><path class="cls-8" d="M319,94.85v0a13.11,13.11,0,0,0-.16-1.38c-.07-.2-.19-.5-.2-.53-.13-.44-.21-.31-.24-.31-.54,0-.32,1-.72,2.12a4.22,4.22,0,0,1-.32.68c-.18.1-.36.21-.52.32s-1,4.89-.28,4.1A5.56,5.56,0,0,1,320.23,98a10.58,10.58,0,0,1,2.25.19,15.51,15.51,0,0,0,2.45.48c0-.19-.25-.32-.4-.4a9.24,9.24,0,0,0-1.83-.85l-.65-.2-.32-.12.35,0c.22,0,.45.09.67.1.65,0,2.52.5,2.79.45.08,0,.28,0,.25-.16s-1.35-.7-1.72-.79c-.76-.2-1.58-.46-1.79-.52,0,0-.2,0-.22-.07s.19,0,.2,0c.18,0,3.7.11,3.64,0-.14-.26-.51-.36-.8-.45a10.89,10.89,0,0,0-2.29-.31L322,95.3s-.28,0-.3,0,.17,0,.19,0,.36,0,.52,0a14.71,14.71,0,0,1,1.88-.12c.25,0,.91,0,.93-.07,0-.33-2.52-.49-3-.47A21.54,21.54,0,0,0,319,94.85Zm-.59-2.08"/><path class="cls-8" d="M298.47,91c3.58,2.88,7.69,13,7.69,13s2.16-1.42,4-2.87c4.93-3.82,8-7.45,9-5.93,1.26,1.77-13,16.26-15.29,12.82-4.57-5-10.14-8.41-10.27-11.91C293.54,94.53,298.47,91,298.47,91Z"/><path class="cls-9" d="M282.84,111.44h.3l0,0h0l0,0h0v0h0v0l0,0v0h0v.21l0,.14v.82l0,.06v0l0,.09v.19h0v0h0l0,0v0H284v0h0l0,0h0l0,0v0h0v0l0,0v.6l0,0h0v0l0,0v0h0v0h0l0,0H284l0,0-.06.05,0,0,0,0-.05,0,0,0,0,0,0,0,0,0,0,0,0,0-.05,0h-.62l0,0,0,0,0,0,0,0,0,0,0,0,0,0v0h0l0-.07,0,0,0,0,0-.06,0,0,0-.06,0-.06,0-.07,0,0,0,0v0l0,0,0,0v0l0,0v-.75l0-.05v-.06l0-.09v-.2h0v0h0v-.22l0-.13v-.43h0v0l0,0v0h0v0h0l0,0h0l0,0h.3Z"/><path class="cls-10" d="M289.76,92.53A4,4,0,0,0,293,89.17L291.81,85c-.21-1.21-1.63-1.81-3.05-1.36S287,85.75,287.23,87l.4,4.49C287.84,92.67,289,92.67,289.76,92.53Z"/><path class="cls-11" d="M295,80.76c.17-2-.2-3.92-1.65-4.85-3.17-2-7.47-.1-8.74,1.67-.69,1-.8,3.2-.07,5.48a10.3,10.3,0,0,0,2.58,4.24c2.05,1.7,4.75,0,5.84-1a6.64,6.64,0,0,0,1.38-2.49,1.46,1.46,0,0,0,1.23-1.06A1.65,1.65,0,0,0,295,80.76Z"/><polygon class="cls-12" points="280.92 122.41 279.77 149.95 280.35 176.91 284.36 176.91 293.38 120.69 280.92 122.41"/><path id="头发" class="cls-13" d="M296.17,81.35c-.22,1.76-.93,2.75-2.14,3a16.75,16.75,0,0,0,.84-3.12,1.09,1.09,0,0,0-.53-.82,1.64,1.64,0,0,0-1,0c-.85-1.83-1.58-2.57-2.46-3a5.79,5.79,0,0,0-3.61-.49,9.61,9.61,0,0,0-3.49,2.35,3.34,3.34,0,0,1-.53-2.55,3.68,3.68,0,0,1,1.92-2.84,9.86,9.86,0,0,1,4.71-1.31,5.45,5.45,0,0,1,4.74,2A11,11,0,0,1,296.17,81.35Z"/><path class="cls-14" d="M284.36,176.91v3.44H275a.53.53,0,0,1-.3-1,14.74,14.74,0,0,1,5.62-2.46Z"/><polyline class="cls-15" points="300.43 120.69 286.92 123.68 291.25 148.8 296.41 178.63 300.43 178.63"/><path class="cls-16" d="M300.43,178.06v3.44H291a.54.54,0,0,1-.3-1,14.88,14.88,0,0,1,5.62-2.45Z"/><path class="cls-17" d="M306,101.38c.08,0-4.55-9.58-8.86-11l-.2-.13A19.11,19.11,0,0,0,293.14,89s-2.13,4.8-5.33,3.61c-1.15-.57-.48-2.78-.48-2.78l-.1.06a7.54,7.54,0,0,0-5.73,2.72,22.44,22.44,0,0,0-4.13,8.2,34,34,0,0,0,4.45,5c-.21,4.1-.3,8.49-.45,11.11-.11,2-.23,3.92-.4,5.73,6.44,2.55,12.25-.28,18.81-1.06a.89.89,0,0,0,.48-.16c.26-.22.22-.66.16-1a101.15,101.15,0,0,1-1.37-14.89c.64,1.24,1,2.08,1,2.08S304.7,103.7,306,101.38Z"/><text/><polygon class="cls-18" points="253.5 74.54 187.8 92.12 187.8 168 248.87 143.94 253.5 74.54"/><polygon class="cls-19" points="129.5 68.98 187.8 92.12 187.8 168 131.35 142.09 129.5 68.98"/><polygon class="cls-20" points="186.87 56.03 253.5 74.54 187.8 92.12 129.5 68.98 186.87 56.03"/><polygon class="cls-21" points="253.5 74.54 226.66 81.94 164.79 60.7 186.87 56.03 253.5 74.54"/><polygon class="cls-22" points="226.66 81.94 187.8 92.12 129.52 68.98 164.79 60.7 226.66 81.94"/><polygon class="cls-23" points="218.34 84.08 157.63 62.37 169.82 59.58 235.41 79.38 218.34 84.08"/><path class="cls-24" d="M235.41,79.38a2.54,2.54,0,0,0,0,.41l-.07,1.08-.11,1.54-.12,1.77L235,86l-.1,1.56-.08,1.12a.86.86,0,0,1-1,.84.54.54,0,0,1-.22-.09c-.07-.06-.12-.14-.18-.2a1,1,0,0,0-.74-.36,1,1,0,0,0-.76.3c-.32.31-.42.79-.75,1.08a1.14,1.14,0,0,1-1.21.19c-.38-.18-.45-.7-.95-.75a.87.87,0,0,0-.72.33,2.88,2.88,0,0,0-.4.73,3.56,3.56,0,0,1-.39.75,1.18,1.18,0,0,1-.68.48,1.09,1.09,0,0,1-1.29-.66.73.73,0,0,0-.64-.49.79.79,0,0,0-.61.27,1.48,1.48,0,0,0-.19.35c-.12.25-.25.51-.38.76a2.7,2.7,0,0,1-1,1.14c-.2.11-.48.15-.62,0a.46.46,0,0,1-.09-.2,2.72,2.72,0,0,0-.51-.89.75.75,0,0,0-.17-.14.73.73,0,0,0-.29,0,1.1,1.1,0,0,0-.65.14,1,1,0,0,0-.2.24,4.31,4.31,0,0,0-.45.85,4.89,4.89,0,0,1-.39.91c-.18.27-.81.83-1,.29a4.5,4.5,0,0,1,0-1.16V84.08Z"/><line class="cls-25" x1="227.13" y1="81.94" x2="164.66" y2="61.12"/><polygon class="cls-26" points="195.2 90.11 187.8 104.3 187.8 121.73 208.16 86.57 195.2 90.11"/><circle class="cls-28" cx="86.57" cy="149.43" r="14.43"/><polyline class="cls-29" points="197.7 49.3 197.76 31.07 188.96 36.08 188.9 54.31 184.46 56.84 193.24 69.36 202.15 46.77 197.7 49.3"/><polyline class="cls-30" points="180.23 38.55 180.19 25.11 173.73 28.84 173.76 42.29 170.5 44.17 177.03 53.36 183.5 36.67 180.23 38.55"/><polyline class="cls-31" points="207.45 33.84 207.43 27 204.14 28.9 204.16 35.73 202.5 36.69 205.82 41.36 209.11 32.88 207.45 33.84"/></g></g></svg>